ffmpeg started on 2016-12-08 at 14:59:17
Report written to "Output/x264/results/ffmpeg/crowd_run_2160p50veryslow3500k.log"
Command line:
Tools/ffmpeg/ffmpeg -benchmark -y -i Input/y4m/crowd_run_2160p50.y4m -c:v libx264 -preset veryslow -b:v 3500k -an Output/x264/encoded/crowd_run_2160p50veryslow3500k.mkv
ffmpeg version N-82227-gdb23fde Copyright (c) 2000-2016 the FFmpeg developers
  built with gcc 5.4.0 (Ubuntu 5.4.0-6ubuntu1~16.04.2) 20160609
  configuration: --prefix=/home/jaroslav/ffmpeg_build --pkg-config-flags=--static --extra-cflags=-I/home/jaroslav/ffmpeg_build/include --extra-ldflags=-L/home/jaroslav/ffmpeg_build/lib --bindir=/home/jaroslav/bin --enable-gpl --enable-libass --enable-libfdk-aac --enable-libfreetype --enable-libmp3lame --enable-libopus --enable-libtheora --enable-libvorbis --enable-libvpx --enable-libx264 --enable-libx265 --enable-nvenc --enable-libmfx --enable-libxvid --enable-libgsm --enable-libopencore-amrnb --enable-version3 --enable-nonfree
  libavutil      55. 35.100 / 55. 35.100
  libavcodec     57. 66.101 / 57. 66.101
  libavformat    57. 57.100 / 57. 57.100
  libavdevice    57.  2.100 / 57.  2.100
  libavfilter     6. 66.100 /  6. 66.100
  libswscale      4.  3.100 /  4.  3.100
  libswresample   2.  4.100 /  2.  4.100
  libpostproc    54.  2.100 / 54.  2.100
Input #0, yuv4mpegpipe, from 'Input/y4m/crowd_run_2160p50.y4m':
  Duration: 00:00:10.00, start: 0.000000, bitrate: 4976642 kb/s
    Stream #0:0: Video: rawvideo (I420 / 0x30323449), yuv420p(progressive), 3840x2160, SAR 1:1 DAR 16:9, 50 fps, 50 tbr, 50 tbn, 50 tbc
[libx264 @ 0x3bb51c0] using SAR=1/1
[libx264 @ 0x3bb51c0] DPB size (16 frames, 518400 mbs) > level limit (5 frames, 184320 mbs)
[libx264 @ 0x3bb51c0] using cpu capabilities: MMX2 SSE2Fast SSSE3 SSE4.2 AVX FMA3 AVX2 LZCNT BMI2
[libx264 @ 0x3bb51c0] profile High, level 5.2
[libx264 @ 0x3bb51c0] 264 - core 148 - H.264/MPEG-4 AVC codec - Copyleft 2003-2016 - http://www.videolan.org/x264.html - options: cabac=1 ref=16 deblock=1:0:0 analyse=0x3:0x133 me=umh subme=10 psy=1 psy_rd=1.00:0.00 mixed_ref=1 me_range=24 chroma_me=1 trellis=2 8x8dct=1 cqm=0 deadzone=21,11 fast_pskip=1 chroma_qp_offset=-2 threads=6 lookahead_threads=1 sliced_threads=0 nr=0 decimate=1 interlaced=0 bluray_compat=0 constrained_intra=0 bframes=8 b_pyramid=2 b_adapt=2 b_bias=0 direct=3 weightb=1 open_gop=0 weightp=2 keyint=250 keyint_min=25 scenecut=40 intra_refresh=0 rc_lookahead=60 rc=abr mbtree=1 bitrate=3500 ratetol=1.0 qcomp=0.60 qpmin=0 qpmax=69 qpstep=4 ip_ratio=1.40 aq=1:1.00
Output #0, matroska, to 'Output/x264/encoded/crowd_run_2160p50veryslow3500k.mkv':
  Metadata:
    encoder         : Lavf57.57.100
    Stream #0:0: Video: h264 (libx264) (H264 / 0x34363248), yuv420p, 3840x2160 [SAR 1:1 DAR 16:9], q=-1--1, 3500 kb/s, 50 fps, 1k tbn, 50 tbc
    Metadata:
      encoder         : Lavc57.66.101 libx264
    Side data:
      cpb: bitrate max/min/avg: 0/0/3500000 buffer size: 0 vbv_delay: -1
Stream mapping:
  Stream #0:0 -> #0:0 (rawvideo (native) -> h264 (libx264))
Press [q] to stop, [?] for help
frame=   19 fps=0.0 q=0.0 size=       0kB time=00:00:00.00 bitrate=N/A speed=   0x    frame=   30 fps= 29 q=0.0 size=       0kB time=00:00:00.00 bitrate=N/A speed=   0x    frame=   39 fps= 23 q=0.0 size=       0kB time=00:00:00.00 bitrate=N/A speed=   0x    frame=   46 fps= 19 q=0.0 size=       0kB time=00:00:00.00 bitrate=N/A speed=   0x    frame=   54 fps= 18 q=0.0 size=       0kB time=00:00:00.00 bitrate=N/A speed=   0x    frame=   62 fps= 17 q=0.0 size=       0kB time=00:00:00.00 bitrate=N/A speed=   0x    frame=   70 fps= 17 q=0.0 size=       0kB time=00:00:00.00 bitrate=N/A speed=   0x    frame=   72 fps=6.3 q=0.0 size=       0kB time=00:00:00.00 bitrate=N/A speed=   0x    frame=   77 fps=6.2 q=51.0 size=       1kB time=-00:00:00.01 bitrate=N/A speed=N/A    frame=   78 fps=5.8 q=47.0 size=       1kB time=00:00:00.00 bitrate=5888.0kbits/s speed=7.48e-05x    frame=   82 fps=5.5 q=55.0 size=       1kB time=00:00:00.08 bitrate=  72.7kbits/s speed=0.00547x    frame=   86 fps=5.2 q=59.0 size=       1kB time=00:00:00.16 bitrate=  36.6kbits/s speed=0.00974x    frame=   90 fps=4.9 q=58.0 size=       1kB time=00:00:00.24 bitrate=  24.4kbits/s speed=0.0132x    frame=   94 fps=4.7 q=58.0 size=       1kB time=00:00:00.32 bitrate=  18.3kbits/s speed=0.0162x    frame=   96 fps=4.7 q=58.0 size=       1kB time=00:00:00.36 bitrate=  16.3kbits/s speed=0.0177x    frame=   98 fps=4.6 q=58.0 size=       1kB time=00:00:00.40 bitrate=  14.7kbits/s speed=0.0187x    frame=   99 fps=4.3 q=58.0 size=       1kB time=00:00:00.42 bitrate=  14.0kbits/s speed=0.0182x    frame=  101 fps=4.2 q=58.0 size=       1kB time=00:00:00.46 bitrate=  12.8kbits/s speed=0.0192x    frame=  103 fps=4.1 q=58.0 size=       1kB time=00:00:00.50 bitrate=  11.8kbits/s speed=0.02x    frame=  104 fps=4.0 q=58.0 size=       1kB time=00:00:00.52 bitrate=  11.3kbits/s speed=0.0201x    frame=  105 fps=3.9 q=58.0 size=       1kB time=00:00:00.54 bitrate=  10.9kbits/s speed=0.0203x    frame=  106 fps=3.9 q=58.0 size=       1kB time=00:00:00.56 bitrate=  10.5kbits/s speed=0.0206x    frame=  107 fps=3.8 q=58.0 size=       1kB time=00:00:00.58 bitrate=  10.1kbits/s speed=0.0206x    frame=  108 fps=3.7 q=58.0 size=       1kB time=00:00:00.60 bitrate=   9.8kbits/s speed=0.0206x    frame=  110 fps=3.7 q=58.0 size=       1kB time=00:00:00.64 bitrate=   9.2kbits/s speed=0.0215x    frame=  111 fps=3.6 q=58.0 size=       1kB time=00:00:00.66 bitrate=   8.9kbits/s speed=0.0216x    frame=  112 fps=3.5 q=58.0 size=       1kB time=00:00:00.68 bitrate=   8.6kbits/s speed=0.0213x    frame=  115 fps=3.4 q=57.0 size=       1kB time=00:00:00.74 bitrate=   7.9kbits/s speed=0.022x    frame=  117 fps=3.4 q=57.0 size=       1kB time=00:00:00.78 bitrate=   7.5kbits/s speed=0.0228x    frame=  118 fps=3.3 q=57.0 size=       1kB time=00:00:00.80 bitrate=   7.4kbits/s speed=0.0224x    frame=  120 fps=3.3 q=57.0 size=       1kB time=00:00:00.84 bitrate=   7.0kbits/s speed=0.023x    frame=  121 fps=3.2 q=57.0 size=       1kB time=00:00:00.86 bitrate=   6.8kbits/s speed=0.0227x    frame=  124 fps=3.2 q=57.0 size=       1kB time=00:00:00.92 bitrate=   6.4kbits/s speed=0.0235x    frame=  125 fps=3.1 q=57.0 size=       1kB time=00:00:00.94 bitrate=   6.3kbits/s speed=0.0231x    frame=  128 fps=3.0 q=57.0 size=       1kB time=00:00:01.00 bitrate=   5.9kbits/s speed=0.0235x    frame=  129 fps=3.0 q=57.0 size=       1kB time=00:00:01.02 bitrate=   5.8kbits/s speed=0.0234x    frame=  131 fps=3.0 q=57.0 size=       1kB time=00:00:01.06 bitrate=   5.5kbits/s speed=0.0239x    frame=  132 fps=2.9 q=57.0 size=       1kB time=00:00:01.08 bitrate=   5.4kbits/s speed=0.024x    frame=  134 fps=2.9 q=57.0 size=       1kB time=00:00:01.12 bitrate=   5.3kbits/s speed=0.0239x    frame=  136 fps=2.9 q=57.0 size=       1kB time=00:00:01.16 bitrate=   5.1kbits/s speed=0.0244x    frame=  138 fps=2.8 q=57.0 size=       1kB time=00:00:01.20 bitrate=   4.9kbits/s speed=0.0243x    frame=  140 fps=2.8 q=57.0 size=       1kB time=00:00:01.24 bitrate=   4.7kbits/s speed=0.0248x    frame=  141 fps=2.8 q=57.0 size=       1kB time=00:00:01.26 bitrate=   4.7kbits/s speed=0.025x    frame=  142 fps=2.7 q=57.0 size=       1kB time=00:00:01.28 bitrate=   4.6kbits/s speed=0.0244x    frame=  144 fps=2.7 q=56.0 size=       1kB time=00:00:01.32 bitrate=   4.5kbits/s speed=0.0248x    frame=  146 fps=2.6 q=57.0 size=       1kB time=00:00:01.36 bitrate=   4.3kbits/s speed=0.0246x    frame=  148 fps=2.6 q=56.0 size=       1kB time=00:00:01.40 bitrate=   4.2kbits/s speed=0.0249x    frame=  150 fps=2.6 q=56.0 size=       1kB time=00:00:01.44 bitrate=   4.1kbits/s speed=0.0252x    frame=  151 fps=2.6 q=56.0 size=       1kB time=00:00:01.46 bitrate=   4.0kbits/s speed=0.0248x    frame=  152 fps=2.6 q=56.0 size=       1kB time=00:00:01.48 bitrate=   4.0kbits/s speed=0.0249x    frame=  155 fps=2.6 q=56.0 size=       1kB time=00:00:01.54 bitrate=   3.8kbits/s speed=0.0254x    frame=  157 fps=2.5 q=56.0 size=       1kB time=00:00:01.58 bitrate=   3.7kbits/s speed=0.0252x    frame=  158 fps=2.5 q=56.0 size=       1kB time=00:00:01.60 bitrate=   3.7kbits/s speed=0.0252x    frame=  160 fps=2.5 q=56.0 size=       1kB time=00:00:01.64 bitrate=   3.6kbits/s speed=0.0255x    frame=  162 fps=2.5 q=56.0 size=       1kB time=00:00:01.68 bitrate=   3.5kbits/s speed=0.0258x    frame=  163 fps=2.5 q=56.0 size=       1kB time=00:00:01.70 bitrate=   3.5kbits/s speed=0.0258x    frame=  164 fps=2.4 q=56.0 size=       1kB time=00:00:01.72 bitrate=   3.4kbits/s speed=0.0254x    frame=  165 fps=2.4 q=56.0 size=       1kB time=00:00:01.74 bitrate=   3.4kbits/s speed=0.0255x    frame=  168 fps=2.4 q=56.0 size=       1kB time=00:00:01.80 bitrate=   3.3kbits/s speed=0.0261x    frame=  169 fps=2.4 q=56.0 size=       1kB time=00:00:01.82 bitrate=   3.2kbits/s speed=0.0259x    frame=  171 fps=2.4 q=56.0 size=       1kB time=00:00:01.86 bitrate=   3.2kbits/s speed=0.0258x    frame=  172 fps=2.4 q=56.0 size=       1kB time=00:00:01.88 bitrate=   3.1kbits/s speed=0.0258x    frame=  173 fps=2.3 q=56.0 size=       1kB time=00:00:01.90 bitrate=   3.1kbits/s speed=0.0257x    frame=  175 fps=2.3 q=56.0 size=       1kB time=00:00:01.94 bitrate=   3.0kbits/s speed=0.026x    frame=  177 fps=2.3 q=56.0 size=       1kB time=00:00:01.98 bitrate=   3.0kbits/s speed=0.0261x    frame=  179 fps=2.3 q=56.0 size=       1kB time=00:00:02.02 bitrate=   2.9kbits/s speed=0.0259x    frame=  182 fps=2.3 q=56.0 size=       1kB time=00:00:02.08 bitrate=   2.8kbits/s speed=0.0265x    frame=  183 fps=2.3 q=56.0 size=       1kB time=00:00:02.10 bitrate=   2.8kbits/s speed=0.0261x    frame=  185 fps=2.3 q=56.0 size=       1kB time=00:00:02.14 bitrate=   2.8kbits/s speed=0.0263x    frame=  186 fps=2.3 q=56.0 size=       1kB time=00:00:02.16 bitrate=   2.7kbits/s speed=0.0262x    frame=  187 fps=2.2 q=56.0 size=       1kB time=00:00:02.18 bitrate=   2.7kbits/s speed=0.0261x    frame=  188 fps=2.2 q=56.0 size=       1kB time=00:00:02.20 bitrate=   2.7kbits/s speed=0.0261x    frame=  191 fps=2.2 q=56.0 size=       1kB time=00:00:02.26 bitrate=   2.6kbits/s speed=0.0266x    frame=  192 fps=2.2 q=56.0 size=       1kB time=00:00:02.28 bitrate=   2.6kbits/s speed=0.0261x    frame=  194 fps=2.2 q=56.0 size=       1kB time=00:00:02.32 bitrate=   2.5kbits/s speed=0.0264x    frame=  197 fps=2.2 q=55.0 size=       1kB time=00:00:02.38 bitrate=   2.5kbits/s speed=0.0266x    frame=  198 fps=2.2 q=55.0 size=       1kB time=00:00:02.40 bitrate=   2.5kbits/s speed=0.0264x    frame=  199 fps=2.2 q=55.0 size=       1kB time=00:00:02.42 bitrate=   2.4kbits/s speed=0.0264x    frame=  202 fps=2.2 q=55.0 size=       1kB time=00:00:02.48 bitrate=   2.4kbits/s speed=0.0267x    frame=  204 fps=2.2 q=55.0 size=       1kB time=00:00:02.52 bitrate=   2.3kbits/s speed=0.0268x    frame=  205 fps=2.1 q=55.0 size=       1kB time=00:00:02.54 bitrate=   2.3kbits/s speed=0.0266x    frame=  206 fps=2.1 q=55.0 size=       1kB time=00:00:02.56 bitrate=   2.3kbits/s speed=0.0264x    frame=  208 fps=2.1 q=55.0 size=       1kB time=00:00:02.60 bitrate=   2.3kbits/s speed=0.0267x    frame=  211 fps=2.1 q=55.0 size=       1kB time=00:00:02.66 bitrate=   2.2kbits/s speed=0.0267x    frame=  212 fps=2.1 q=55.0 size=       1kB time=00:00:02.68 bitrate=   2.2kbits/s speed=0.0266x    frame=  215 fps=2.1 q=55.0 size=       1kB time=00:00:02.74 bitrate=   2.1kbits/s speed=0.0268x    frame=  217 fps=2.1 q=55.0 size=       1kB time=00:00:02.78 bitrate=   2.1kbits/s speed=0.0269x    frame=  218 fps=2.1 q=55.0 size=       1kB time=00:00:02.80 bitrate=   2.1kbits/s speed=0.0267x    frame=  219 fps=2.1 q=55.0 size=       1kB time=00:00:02.82 bitrate=   2.1kbits/s speed=0.0267x    frame=  220 fps=2.1 q=55.0 size=       1kB time=00:00:02.84 bitrate=   2.1kbits/s speed=0.0267x    frame=  221 fps=2.1 q=55.0 size=       1kB time=00:00:02.86 bitrate=   2.1kbits/s speed=0.0268x    frame=  223 fps=2.1 q=55.0 size=       1kB time=00:00:02.90 bitrate=   2.0kbits/s speed=0.027x    frame=  224 fps=2.1 q=55.0 size=       1kB time=00:00:02.92 bitrate=   2.0kbits/s speed=0.0269x    frame=  225 fps=2.0 q=55.0 size=       1kB time=00:00:02.94 bitrate=   2.0kbits/s speed=0.0266x    frame=  227 fps=2.0 q=55.0 size=       1kB time=00:00:02.98 bitrate=   2.0kbits/s speed=0.0268x    frame=  230 fps=2.0 q=55.0 size=       1kB time=00:00:03.04 bitrate=   1.9kbits/s speed=0.0267x    frame=  231 fps=2.0 q=55.0 size=       1kB time=00:00:03.06 bitrate=   1.9kbits/s speed=0.0268x    frame=  235 fps=2.0 q=55.0 size=       1kB time=00:00:03.14 bitrate=   1.9kbits/s speed=0.0271x    frame=  236 fps=2.0 q=55.0 size=       1kB time=00:00:03.16 bitrate=   1.9kbits/s speed=0.0268x    frame=  237 fps=2.0 q=55.0 size=       1kB time=00:00:03.18 bitrate=   1.9kbits/s speed=0.0267x    frame=  241 fps=2.0 q=55.0 size=       1kB time=00:00:03.26 bitrate=   1.8kbits/s speed=0.0272x    frame=  242 fps=2.0 q=55.0 size=       1kB time=00:00:03.28 bitrate=   1.8kbits/s speed=0.0269x    frame=  243 fps=2.0 q=55.0 size=       1kB time=00:00:03.30 bitrate=   1.8kbits/s speed=0.0268x    frame=  246 fps=2.0 q=55.0 size=       1kB time=00:00:03.36 bitrate=   1.8kbits/s speed=0.027x    frame=  248 fps=2.0 q=55.0 size=       1kB time=00:00:03.40 bitrate=   1.7kbits/s speed=0.027x    frame=  249 fps=2.0 q=55.0 size=       1kB time=00:00:03.42 bitrate=   1.7kbits/s speed=0.0269x    frame=  250 fps=2.0 q=55.0 size=       1kB time=00:00:03.44 bitrate=   1.7kbits/s speed=0.027x    frame=  251 fps=1.9 q=55.0 size=       1kB time=00:00:03.46 bitrate=   1.7kbits/s speed=0.0269x    frame=  252 fps=1.9 q=55.0 size=       1kB time=00:00:03.48 bitrate=   1.7kbits/s speed=0.0269x    frame=  254 fps=1.9 q=55.0 size=       1kB time=00:00:03.52 bitrate=   1.7kbits/s speed=0.027x    frame=  255 fps=1.9 q=55.0 size=       1kB time=00:00:03.54 bitrate=   1.7kbits/s speed=0.027x    frame=  257 fps=1.9 q=55.0 size=       1kB time=00:00:03.58 bitrate=   1.6kbits/s speed=0.027x    frame=  259 fps=1.9 q=55.0 size=       1kB time=00:00:03.62 bitrate=   1.6kbits/s speed=0.0272x    frame=  261 fps=1.9 q=55.0 size=       1kB time=00:00:03.66 bitrate=   1.6kbits/s speed=0.027x    frame=  263 fps=1.9 q=55.0 size=       1kB time=00:00:03.70 bitrate=   1.6kbits/s speed=0.0271x    frame=  265 fps=1.9 q=55.0 size=       1kB time=00:00:03.74 bitrate=   1.6kbits/s speed=0.0271x    frame=  267 fps=1.9 q=55.0 size=       1kB time=00:00:03.78 bitrate=   1.6kbits/s speed=0.0272x    frame=  268 fps=1.9 q=55.0 size=       1kB time=00:00:03.80 bitrate=   1.5kbits/s speed=0.0271x    frame=  269 fps=1.9 q=55.0 size=       1kB time=00:00:03.82 bitrate=   1.5kbits/s speed=0.0271x    frame=  271 fps=1.9 q=55.0 size=       1kB time=00:00:03.86 bitrate=   1.5kbits/s speed=0.0272x    frame=  272 fps=1.9 q=55.0 size=       1kB time=00:00:03.88 bitrate=   1.5kbits/s speed=0.0272x    frame=  273 fps=1.9 q=55.0 size=       1kB time=00:00:03.90 bitrate=   1.5kbits/s speed=0.0272x    frame=  274 fps=1.9 q=55.0 size=       1kB time=00:00:03.92 bitrate=   1.5kbits/s speed=0.0271x    frame=  275 fps=1.9 q=55.0 size=       1kB time=00:00:03.94 bitrate=   1.5kbits/s speed=0.0271x    frame=  277 fps=1.9 q=55.0 size=       1kB time=00:00:03.98 bitrate=   1.5kbits/s speed=0.0273x    frame=  278 fps=1.9 q=55.0 size=       1kB time=00:00:04.00 bitrate=   1.5kbits/s speed=0.0271x    frame=  279 fps=1.9 q=55.0 size=       1kB time=00:00:04.02 bitrate=   1.5kbits/s speed=0.0271x    frame=  281 fps=1.9 q=55.0 size=       1kB time=00:00:04.06 bitrate=   1.4kbits/s speed=0.0271x    frame=  283 fps=1.9 q=55.0 size=       1kB time=00:00:04.10 bitrate=   1.4kbits/s speed=0.0272x    frame=  285 fps=1.9 q=55.0 size=       1kB time=00:00:04.14 bitrate=   1.4kbits/s speed=0.0273x    frame=  286 fps=1.9 q=55.0 size=       1kB time=00:00:04.16 bitrate=   1.4kbits/s speed=0.0273x    frame=  287 fps=1.9 q=55.0 size=       1kB time=00:00:04.18 bitrate=   1.4kbits/s speed=0.0271x    frame=  290 fps=1.9 q=55.0 size=       1kB time=00:00:04.24 bitrate=   1.4kbits/s speed=0.0274x    frame=  291 fps=1.9 q=55.0 size=       1kB time=00:00:04.26 bitrate=   1.4kbits/s speed=0.0271x    frame=  293 fps=1.9 q=55.0 size=       1kB time=00:00:04.30 bitrate=   1.4kbits/s speed=0.0273x    frame=  294 fps=1.9 q=55.0 size=       1kB time=00:00:04.32 bitrate=   1.4kbits/s speed=0.0272x    frame=  295 fps=1.8 q=55.0 size=       1kB time=00:00:04.34 bitrate=   1.4kbits/s speed=0.0272x    frame=  297 fps=1.8 q=55.0 size=       1kB time=00:00:04.38 bitrate=   1.3kbits/s speed=0.0273x    frame=  298 fps=1.8 q=55.0 size=       1kB time=00:00:04.40 bitrate=   1.3kbits/s speed=0.0272x    frame=  300 fps=1.8 q=55.0 size=       1kB time=00:00:04.44 bitrate=   1.3kbits/s speed=0.0272x    frame=  301 fps=1.8 q=55.0 size=       1kB time=00:00:04.46 bitrate=   1.3kbits/s speed=0.0272x    frame=  304 fps=1.8 q=55.0 size=       1kB time=00:00:04.52 bitrate=   1.3kbits/s speed=0.0272x    frame=  305 fps=1.8 q=55.0 size=       1kB time=00:00:04.54 bitrate=   1.3kbits/s speed=0.0272x    frame=  307 fps=1.8 q=55.0 size=       1kB time=00:00:04.58 bitrate=   1.3kbits/s speed=0.0273x    frame=  308 fps=1.8 q=55.0 size=       1kB time=00:00:04.60 bitrate=   1.3kbits/s speed=0.0273x    frame=  309 fps=1.8 q=55.0 size=       1kB time=00:00:04.62 bitrate=   1.3kbits/s speed=0.0273x    frame=  311 fps=1.8 q=55.0 size=       1kB time=00:00:04.66 bitrate=   1.3kbits/s speed=0.0274x    frame=  312 fps=1.8 q=55.0 size=       1kB time=00:00:04.68 bitrate=   1.3kbits/s speed=0.0272x    frame=  313 fps=1.8 q=55.0 size=       1kB time=00:00:04.70 bitrate=   1.3kbits/s speed=0.0273x    frame=  314 fps=1.8 q=55.0 size=       1kB time=00:00:04.72 bitrate=   1.2kbits/s speed=0.0273x    frame=  316 fps=1.8 q=55.0 size=       1kB time=00:00:04.76 bitrate=   1.2kbits/s speed=0.0273x    frame=  318 fps=1.8 q=55.0 size=       1kB time=00:00:04.80 bitrate=   1.2kbits/s speed=0.0274x    frame=  319 fps=1.8 q=55.0 size=       1kB time=00:00:04.82 bitrate=   1.2kbits/s speed=0.0272x    frame=  320 fps=1.8 q=55.0 size=       1kB time=00:00:04.84 bitrate=   1.2kbits/s speed=0.0272x    frame=  322 fps=1.8 q=55.0 size=       1kB time=00:00:04.88 bitrate=   1.2kbits/s speed=0.0274x    frame=  325 fps=1.8 q=55.0 size=       1kB time=00:00:04.94 bitrate=   1.2kbits/s speed=0.0274x    frame=  332 fps=1.8 q=55.0 size=    2181kB time=00:00:05.08 bitrate=3515.8kbits/s speed=0.0279x    frame=  336 fps=1.8 q=55.0 size=    2181kB time=00:00:05.16 bitrate=3461.3kbits/s speed=0.0282x    frame=  338 fps=1.8 q=55.0 size=    2181kB time=00:00:05.20 bitrate=3434.7kbits/s speed=0.0283x    frame=  339 fps=1.8 q=55.0 size=    2181kB time=00:00:05.22 bitrate=3421.5kbits/s speed=0.0284x    frame=  341 fps=1.8 q=55.0 size=    2181kB time=00:00:05.26 bitrate=3395.5kbits/s speed=0.0285x    frame=  342 fps=1.8 q=55.0 size=    2181kB time=00:00:05.28 bitrate=3382.6kbits/s speed=0.0285x    frame=  345 fps=1.8 q=55.0 size=    2181kB time=00:00:05.34 bitrate=3344.6kbits/s speed=0.0286x    frame=  346 fps=1.8 q=55.0 size=    2181kB time=00:00:05.36 bitrate=3332.2kbits/s speed=0.0285x    frame=  349 fps=1.8 q=55.0 size=    2181kB time=00:00:05.42 bitrate=3295.3kbits/s speed=0.0287x    frame=  350 fps=1.8 q=55.0 size=    2181kB time=00:00:05.44 bitrate=3283.2kbits/s speed=0.0286x    frame=  352 fps=1.8 q=55.0 size=    2181kB time=00:00:05.48 bitrate=3259.2kbits/s speed=0.0286x    frame=  353 fps=1.8 q=55.0 size=    2181kB time=00:00:05.50 bitrate=3247.3kbits/s speed=0.0286x    frame=  354 fps=1.8 q=55.0 size=    2181kB time=00:00:05.52 bitrate=3235.6kbits/s speed=0.0285x    frame=  355 fps=1.8 q=55.0 size=    2181kB time=00:00:05.54 bitrate=3223.9kbits/s speed=0.0285x    frame=  358 fps=1.8 q=55.0 size=    2181kB time=00:00:05.60 bitrate=3189.4kbits/s speed=0.0284x    frame=  359 fps=1.8 q=55.0 size=    2181kB time=00:00:05.62 bitrate=3178.0kbits/s speed=0.0285x    frame=  362 fps=1.8 q=55.0 size=    2181kB time=00:00:05.68 bitrate=3144.5kbits/s speed=0.0286x    frame=  364 fps=1.8 q=55.0 size=    2181kB time=00:00:05.72 bitrate=3122.5kbits/s speed=0.0286x    frame=  365 fps=1.8 q=55.0 size=    2181kB time=00:00:05.74 bitrate=3111.6kbits/s speed=0.0285x    frame=  366 fps=1.8 q=55.0 size=    2181kB time=00:00:05.76 bitrate=3100.8kbits/s speed=0.0285x    frame=  368 fps=1.8 q=55.0 size=    2181kB time=00:00:05.80 bitrate=3079.4kbits/s speed=0.0286x    frame=  370 fps=1.8 q=55.0 size=    2181kB time=00:00:05.84 bitrate=3058.3kbits/s speed=0.0285x    frame=  373 fps=1.8 q=55.0 size=    2181kB time=00:00:05.90 bitrate=3027.2kbits/s speed=0.0285x    frame=  374 fps=1.8 q=55.0 size=    2181kB time=00:00:05.92 bitrate=3017.0kbits/s speed=0.0285x    frame=  377 fps=1.8 q=55.0 size=    2181kB time=00:00:05.98 bitrate=2986.7kbits/s speed=0.0286x    frame=  379 fps=1.8 q=55.0 size=    2181kB time=00:00:06.02 bitrate=2966.9kbits/s speed=0.0284x    frame=  380 fps=1.8 q=55.0 size=    2181kB time=00:00:06.04 bitrate=2957.1kbits/s speed=0.0284x    frame=  383 fps=1.8 q=55.0 size=    2181kB time=00:00:06.10 bitrate=2928.0kbits/s speed=0.0285x    frame=  384 fps=1.8 q=55.0 size=    2181kB time=00:00:06.12 bitrate=2918.4kbits/s speed=0.0285x    frame=  385 fps=1.8 q=55.0 size=    2181kB time=00:00:06.14 bitrate=2908.9kbits/s speed=0.0285x    frame=  386 fps=1.8 q=55.0 size=    2181kB time=00:00:06.16 bitrate=2899.5kbits/s speed=0.0285x    frame=  387 fps=1.8 q=55.0 size=    2181kB time=00:00:06.18 bitrate=2890.1kbits/s speed=0.0285x    frame=  388 fps=1.8 q=55.0 size=    2181kB time=00:00:06.20 bitrate=2880.8kbits/s speed=0.0285x    frame=  390 fps=1.8 q=55.0 size=    2181kB time=00:00:06.24 bitrate=2862.3kbits/s speed=0.0285x    frame=  391 fps=1.8 q=55.0 size=    2181kB time=00:00:06.26 bitrate=2853.2kbits/s speed=0.0284x    frame=  392 fps=1.8 q=55.0 size=    2181kB time=00:00:06.28 bitrate=2844.1kbits/s speed=0.0284x    frame=  394 fps=1.8 q=55.0 size=    2181kB time=00:00:06.32 bitrate=2826.1kbits/s speed=0.0285x    frame=  395 fps=1.8 q=55.0 size=    2181kB time=00:00:06.34 bitrate=2817.2kbits/s speed=0.0285x    frame=  397 fps=1.8 q=55.0 size=    2181kB time=00:00:06.38 bitrate=2799.5kbits/s speed=0.0284x    frame=  398 fps=1.8 q=55.0 size=    2181kB time=00:00:06.40 bitrate=2790.8kbits/s speed=0.0284x    frame=  399 fps=1.8 q=56.0 size=    2181kB time=00:00:06.42 bitrate=2782.1kbits/s speed=0.0283x    frame=  400 fps=1.8 q=56.0 size=    2181kB time=00:00:06.44 bitrate=2773.4kbits/s speed=0.0283x    frame=  403 fps=1.8 q=56.0 size=    2181kB time=00:00:06.50 bitrate=2747.8kbits/s speed=0.0283x    frame=  405 fps=1.8 q=56.0 size=    2181kB time=00:00:06.54 bitrate=2731.0kbits/s speed=0.0283x    frame=  406 fps=1.8 q=56.0 size=    2181kB time=00:00:06.56 bitrate=2722.7kbits/s speed=0.0283x    frame=  408 fps=1.7 q=56.0 size=    2181kB time=00:00:06.60 bitrate=2706.2kbits/s speed=0.0283x    frame=  410 fps=1.8 q=56.0 size=    2181kB time=00:00:06.64 bitrate=2689.9kbits/s speed=0.0284x    frame=  411 fps=1.8 q=56.0 size=    2181kB time=00:00:06.66 bitrate=2681.8kbits/s speed=0.0284x    frame=  412 fps=1.7 q=56.0 size=    2181kB time=00:00:06.68 bitrate=2673.8kbits/s speed=0.0282x    frame=  415 fps=1.7 q=56.0 size=    2181kB time=00:00:06.74 bitrate=2650.0kbits/s speed=0.0282x    frame=  416 fps=1.7 q=56.0 size=    2181kB time=00:00:06.76 bitrate=2642.2kbits/s speed=0.0283x    frame=  417 fps=1.7 q=56.0 size=    2181kB time=00:00:06.78 bitrate=2634.4kbits/s speed=0.0283x    frame=  418 fps=1.7 q=56.0 size=    2181kB time=00:00:06.80 bitrate=2626.6kbits/s speed=0.0283x    frame=  420 fps=1.7 q=56.0 size=    2181kB time=00:00:06.84 bitrate=2611.3kbits/s speed=0.0283x    frame=  421 fps=1.7 q=56.0 size=    2181kB time=00:00:06.86 bitrate=2603.7kbits/s speed=0.0282x    frame=  422 fps=1.7 q=56.0 size=    2181kB time=00:00:06.88 bitrate=2596.1kbits/s speed=0.0282x    frame=  423 fps=1.7 q=56.0 size=    2181kB time=00:00:06.90 bitrate=2588.6kbits/s speed=0.0283x    frame=  424 fps=1.7 q=56.0 size=    2181kB time=00:00:06.92 bitrate=2581.1kbits/s speed=0.0283x    frame=  425 fps=1.7 q=56.0 size=    2181kB time=00:00:06.94 bitrate=2573.6kbits/s speed=0.0282x    frame=  428 fps=1.7 q=56.0 size=    2181kB time=00:00:07.00 bitrate=2551.6kbits/s speed=0.0282x    frame=  429 fps=1.7 q=56.0 size=    2181kB time=00:00:07.02 bitrate=2544.3kbits/s speed=0.0281x    frame=  430 fps=1.7 q=56.0 size=    2181kB time=00:00:07.04 bitrate=2537.1kbits/s speed=0.0282x    frame=  432 fps=1.7 q=56.0 size=    2181kB time=00:00:07.08 bitrate=2522.8kbits/s speed=0.0282x    frame=  434 fps=1.7 q=56.0 size=    2181kB time=00:00:07.12 bitrate=2508.6kbits/s speed=0.0282x    frame=  435 fps=1.7 q=56.0 size=    2181kB time=00:00:07.14 bitrate=2501.6kbits/s speed=0.0282x    frame=  437 fps=1.7 q=56.0 size=    2181kB time=00:00:07.18 bitrate=2487.6kbits/s speed=0.0282x    frame=  438 fps=1.7 q=56.0 size=    2181kB time=00:00:07.20 bitrate=2480.7kbits/s speed=0.0281x    frame=  439 fps=1.7 q=56.0 size=    2181kB time=00:00:07.22 bitrate=2473.9kbits/s speed=0.0281x    frame=  441 fps=1.7 q=56.0 size=    2181kB time=00:00:07.26 bitrate=2460.2kbits/s speed=0.0282x    frame=  442 fps=1.7 q=56.0 size=    2181kB time=00:00:07.28 bitrate=2453.5kbits/s speed=0.0281x    frame=  444 fps=1.7 q=56.0 size=    2181kB time=00:00:07.32 bitrate=2440.1kbits/s speed=0.0281x    frame=  446 fps=1.7 q=56.0 size=    2181kB time=00:00:07.36 bitrate=2426.8kbits/s speed=0.0281x    frame=  447 fps=1.7 q=56.0 size=    2181kB time=00:00:07.38 bitrate=2420.2kbits/s speed=0.0281x    frame=  449 fps=1.7 q=56.0 size=    2181kB time=00:00:07.42 bitrate=2407.2kbits/s speed=0.0282x    frame=  450 fps=1.7 q=56.0 size=    2181kB time=00:00:07.44 bitrate=2400.7kbits/s speed=0.0281x    frame=  451 fps=1.7 q=56.0 size=    2181kB time=00:00:07.46 bitrate=2394.3kbits/s speed=0.0281x    frame=  454 fps=1.7 q=56.0 size=    2181kB time=00:00:07.52 bitrate=2375.2kbits/s speed=0.0281x    frame=  456 fps=1.7 q=56.0 size=    2181kB time=00:00:07.56 bitrate=2362.6kbits/s speed=0.0281x    frame=  458 fps=1.7 q=56.0 size=    2181kB time=00:00:07.60 bitrate=2350.2kbits/s speed=0.0281x    frame=  460 fps=1.7 q=56.0 size=    2181kB time=00:00:07.64 bitrate=2337.9kbits/s speed=0.0282x    frame=  461 fps=1.7 q=56.0 size=    2181kB time=00:00:07.66 bitrate=2331.8kbits/s speed=0.0282x    frame=  462 fps=1.7 q=56.0 size=    2181kB time=00:00:07.68 bitrate=2325.7kbits/s speed=0.028x    frame=  463 fps=1.7 q=56.0 size=    2181kB time=00:00:07.70 bitrate=2319.7kbits/s speed=0.0281x    frame=  466 fps=1.7 q=56.0 size=    2181kB time=00:00:07.76 bitrate=2301.7kbits/s speed=0.0281x    frame=  468 fps=1.7 q=56.0 size=    2181kB time=00:00:07.80 bitrate=2289.9kbits/s speed=0.028x    frame=  469 fps=1.7 q=56.0 size=    2181kB time=00:00:07.82 bitrate=2284.1kbits/s speed=0.028x    frame=  470 fps=1.7 q=56.0 size=    2181kB time=00:00:07.84 bitrate=2278.2kbits/s speed=0.028x    frame=  473 fps=1.7 q=56.0 size=    2181kB time=00:00:07.90 bitrate=2260.9kbits/s speed=0.0281x    frame=  474 fps=1.7 q=56.0 size=    2181kB time=00:00:07.92 bitrate=2255.2kbits/s speed=0.0279x    frame=  476 fps=1.7 q=56.0 size=    2181kB time=00:00:07.96 bitrate=2243.9kbits/s speed=0.0279x    frame=  479 fps=1.7 q=56.0 size=    2181kB time=00:00:08.02 bitrate=2227.1kbits/s speed=0.028x    frame=  480 fps=1.7 q=56.0 size=    2181kB time=00:00:08.04 bitrate=2221.6kbits/s speed=0.0279x    frame=  482 fps=1.7 q=56.0 size=    2181kB time=00:00:08.08 bitrate=2210.6kbits/s speed=0.028x    frame=  483 fps=1.7 q=56.0 size=    2181kB time=00:00:08.10 bitrate=2205.1kbits/s speed=0.0279x    frame=  484 fps=1.7 q=56.0 size=    2181kB time=00:00:08.12 bitrate=2199.7kbits/s speed=0.0279x    frame=  486 fps=1.7 q=56.0 size=    2181kB time=00:00:08.16 bitrate=2188.9kbits/s speed=0.0279x    frame=  487 fps=1.7 q=56.0 size=    2181kB time=00:00:08.18 bitrate=2183.6kbits/s speed=0.0279x    frame=  488 fps=1.7 q=56.0 size=    2181kB time=00:00:08.20 bitrate=2178.2kbits/s speed=0.0279x    frame=  490 fps=1.7 q=56.0 size=    2181kB time=00:00:08.24 bitrate=2167.7kbits/s speed=0.0279x    frame=  491 fps=1.7 q=56.0 size=    2181kB time=00:00:08.26 bitrate=2162.4kbits/s speed=0.0279x    frame=  492 fps=1.7 q=56.0 size=    2181kB time=00:00:08.28 bitrate=2157.2kbits/s speed=0.0279x    frame=  493 fps=1.7 q=56.0 size=    2181kB time=00:00:08.30 bitrate=2152.0kbits/s speed=0.0278x    frame=  495 fps=1.7 q=56.0 size=    2181kB time=00:00:08.34 bitrate=2141.7kbits/s speed=0.0278x    frame=  497 fps=1.7 q=56.0 size=    2181kB time=00:00:08.38 bitrate=2131.4kbits/s speed=0.0279x    frame=  498 fps=1.7 q=56.0 size=    2181kB time=00:00:08.40 bitrate=2126.4kbits/s speed=0.0279x    frame=  499 fps=1.6 q=56.0 size=    2181kB time=00:00:08.42 bitrate=2121.3kbits/s speed=0.0278x    frame=  500 fps=1.6 q=56.0 size=    2181kB time=00:00:08.44 bitrate=2116.3kbits/s speed=0.0278x    frame=  500 fps=1.6 q=56.0 size=    2181kB time=00:00:08.44 bitrate=2116.3kbits/s speed=0.0277x    frame=  500 fps=1.4 q=-1.0 Lsize=    4473kB time=00:00:09.94 bitrate=3685.8kbits/s speed=0.0277x    
video:4468kB audio:0kB subtitle:0kB other streams:0kB global headers:0kB muxing overhead: 0.096969%
bench: utime=1377.760s
bench: maxrss=3305900kB
[libx264 @ 0x3bb51c0] frame I:2     Avg QP:44.84  size:123586
[libx264 @ 0x3bb51c0] frame P:114   Avg QP:50.79  size: 19930
[libx264 @ 0x3bb51c0] frame B:384   Avg QP:50.90  size:  5354
[libx264 @ 0x3bb51c0] consecutive B-frames:  0.4%  0.0%  1.2% 60.0% 30.0%  8.4%  0.0%  0.0%  0.0%
[libx264 @ 0x3bb51c0] mb I  I16..4: 25.6% 71.8%  2.6%
[libx264 @ 0x3bb51c0] mb P  I16..4:  9.4%  6.6%  0.0%  P16..4: 19.9%  0.3%  1.6%  0.0%  0.0%    skip:62.2%
[libx264 @ 0x3bb51c0] mb B  I16..4:  0.0%  0.0%  0.0%  B16..8: 16.5%  0.1%  0.0%  direct: 0.1%  skip:83.3%  L0:38.0% L1:61.9% BI: 0.1%
[libx264 @ 0x3bb51c0] final ratefactor: 47.76
[libx264 @ 0x3bb51c0] 8x8 transform intra:44.3% inter:96.8%
[libx264 @ 0x3bb51c0] direct mvs  spatial:99.2% temporal:0.8%
[libx264 @ 0x3bb51c0] coded y,uvDC,uvAC intra: 5.8% 31.2% 1.2% inter: 0.1% 1.9% 0.0%
[libx264 @ 0x3bb51c0] i16 v,h,dc,p: 62% 21%  4% 12%
[libx264 @ 0x3bb51c0] i8 v,h,dc,ddl,ddr,vr,hd,vl,hu:  6%  3% 73%  3%  3%  3%  3%  2%  2%
[libx264 @ 0x3bb51c0] i4 v,h,dc,ddl,ddr,vr,hd,vl,hu:  6%  4%  2% 14% 16% 15% 15% 11% 16%
[libx264 @ 0x3bb51c0] i8c dc,h,v,p: 84%  7%  7%  1%
[libx264 @ 0x3bb51c0] Weighted P-Frames: Y:1.8% UV:0.9%
[libx264 @ 0x3bb51c0] ref P L0: 49.0%  0.6% 15.2%  6.3%  5.0%  5.0%  4.5%  2.1%  1.9%  1.8%  1.6%  1.6%  1.5%  1.5%  1.6%  0.9%
[libx264 @ 0x3bb51c0] ref B L0: 86.9%  3.9%  2.3%  1.0%  1.0%  0.8%  0.8%  0.4%  0.5%  0.5%  0.4%  0.4%  0.4%  0.4%  0.3%
[libx264 @ 0x3bb51c0] ref B L1: 98.9%  1.1%
[libx264 @ 0x3bb51c0] kb/s:3660.00
